<svg xmlns="http://www.w3.org/2000/svg" width="1164.797" height="1164.797" viewBox="0 0 1092 1092"><path d="M932 3.73c7.96-.92 8.17-.02 15 0 48.46 2.01 89.71 23.79 120.38 61.27 6.93 8.46 21.5 31.67 24.07 42 .57 2.31.62 5.6.53 8-.26 7.23-6.15 14.03-9.93 20l-22.83 37c-2.31 3.61-7.98 15.16-12.26 15.41-2.8.17-10.28-4.46-12.96-5.99L876 90.2c-2.74-1.63-9.39-4.92-10.78-7.53-1.61-3.01.49-6.06 1.93-8.67l10.45-18 19.54-34c2.1-3.76 6.73-12.85 10.07-15.07 4.91-3.26 18.57-2.71 24.79-3.2zM1032 128c2.43-3.73 9.95-14.95 9.45-19-.61-5.06-12.24-19.77-15.88-24-15.71-18.26-42.84-32.37-66.57-36.25-4.15-.68-20.72-2.52-23.79-.73-3.29 1.92-9.49 14.12-11.21 17.98l108 62zM930 477c18.08 20.9 26.04 43.52 26 71-.05 29.37-13.8 57.68-36 76.7-10.23 8.76-30.75 20.13-43 27.72L323 991c-18.05 10.85-35.5 23.79-56 29.57-12.07 3.41-21.67 3.57-34 3.43-8.67-.11-19.8-2.51-28-5.34-40.61-14.05-68.93-52.48-69-95.66V200c0-14.84-.88-32.6 1.44-47 4.32-26.84 20.13-51.64 42.56-66.97 8.22-5.62 16.49-9.99 26-13 14.49-4.59 23.04-5.2 38-5.03 25.36.3 42.23 10.73 63 23.2L670 313c2.18 1.31 6.86 3.75 7.71 6.18.96 2.76-2.48 7.42-3.86 9.82 0 0-68.82 116.09-68.85 133l2 195c.03 21.01 8.37 40.56 30 47.23 5.63 1.73 10.21 1.83 16 1.77 4.4-.05 8.83-.66 13-2.1l186-103.66c3.6-2.68 8.74-7.7 11.47-11.24 0 0 60.83-106.98 66.53-112zM648 666l-1.09-21-.16-185.25c.02-11.58 206.67-362.61 208.64-364.15 3.88-3.03 9.1.79 12.61 2.82 0 0 170.43 97.87 171.93 100.79 1.68 3.25-1.11 7.05-2.73 9.79 0 0-203.73 354.1-207.41 357.67L675 653.77c-8.33 4.53-17.35 11.98-27 12.23zm54-215c10.57 2.13 17.81 4.24 28 7.67 2.8.94 8.09 3.49 10.79 2.21C743.62 459.53 903.71 181 903.71 181c1.02-1.82 2.83-4.76 2.42-6.9-.55-2.82-4.83-4.78-7.13-6.1l-19-10.84c-2.86-1.58-5.51-3.53-8.37-.8C870.27 157.65 704.11 444.32 702 451zm279-236-25-14c-2.51-1.5-6.73-4.83-9.67-3.18-1.83 1.03-3.57 4.37-4.61 6.18 0 0-159.57 275.19-161.72 282 0 0 1.76-1.02 9 5.5 7.74 6.97 21 21.5 21 21.5s168.79-290.43 171-298zM778 545c-17.62-25.39-56.9-48.46-88-51l1 52 1 18c.02 9.76.93 8.15 10 13.61 1.85 1.12 4.93 3.31 7 3.56 3.65.44 15.18-6.94 19-8.91L778 545z"/></svg>