<svg xmlns="http://www.w3.org/2000/svg" viewBox="0 0 16 16"><path d="M12.667 2H3.333C2.6 2 2 2.6 2 3.333v9.333c0 .733.6 1.333 1.333 1.333h9.333c.733 0 1.333-.6 1.333-1.333V3.333c0-.733-.6-1.333-1.333-1.333M4.933 12c-1-1-1.6-2.467-1.6-4s.6-3 1.6-4L6 4.467C5.133 5.267 4.667 6.6 4.667 8S5.134 10.733 6 11.533L4.933 12m3.533-2-.533-1.333L7 10H6l1.533-2.067L6.667 6h.867l.533 1.333L9 6h1L8.533 8l.867 2h-.933m2.6 2L10 11.533c.867-.867 1.333-2.133 1.333-3.533S10.866 5.267 10 4.467L11.067 4c1 1 1.6 2.467 1.6 4s-.6 3-1.6 4Z" fill="#fff"/></svg>