<svg version="1.2" xmlns="http://www.w3.org/2000/svg" viewBox="0 0 1092 1092" width="1092" height="1092" fill="#fff"><path fill-rule="evenodd" d="m936.5 3.1c6 0 16.6 0.5 23.5 1.3 6.9 0.8 16.3 2.4 21 3.6 4.7 1.3 13.7 4.4 20 6.9 6.3 2.6 15.8 7.2 21 10.3 5.2 3 14 9.1 19.5 13.5 5.5 4.3 13.7 11.9 18.2 16.9 4.6 4.9 11.3 13.4 15 18.9 3.6 5.5 9.1 14.7 12 20.5 5.1 10 5.4 10.8 5.3 26l-14.3 22.8c-7.9 12.5-16.5 26.3-19.2 30.7-2.7 4.4-6.1 9.2-7.6 10.8-1.5 1.5-3.6 2.7-4.6 2.7-1 0-7.2-3-13.8-6.7-6.6-3.6-38.1-21.7-70-40-31.9-18.4-64.5-37.2-72.5-41.9-8-4.6-16.7-9.8-19.4-11.6-2.7-1.8-5.4-4-5.9-4.8-0.5-0.8-0.7-2.6-0.4-4 0.3-1.4 7.4-14.4 15.8-29 8.4-14.6 17.3-29.8 19.8-33.9 2.5-4.1 5.7-8.3 7.1-9.3 1.6-1.2 5.3-2.1 10.5-2.7 4.4-0.5 13-0.9 19-1zm-7.5 55.1c-1.7 3.2-2.8 6.5-2.5 7.3 0.3 0.8 10.3 7.1 22.3 13.9 11.9 6.8 33.2 19 47.2 27.1 14 8.1 27.7 16 30.5 17.6l5 2.8c4.9-8 7-12 7.8-13.9 1.4-3.3 1.4-3.7-1.2-8.5-1.4-2.8-4.9-7.9-7.8-11.5-2.8-3.6-8.4-9.7-12.5-13.6-4-3.9-10.7-9.2-14.8-11.8-4.1-2.7-10-6.1-13-7.6-3-1.5-8.6-3.9-12.5-5.3-3.9-1.3-10.6-3.2-15-4-4.4-0.9-12.1-1.9-17.1-2.2-8.7-0.7-9.2-0.6-11.3 1.7-1.2 1.2-3.5 4.9-5.1 8zm-495 121.4c14 0.2 31.6 1.1 39 1.9 7.4 0.9 20 2.7 28 4.1 8 1.3 21.7 4.3 30.5 6.5 8.8 2.3 23.9 6.7 33.5 9.9 9.6 3.2 22 7.7 27.5 10 5.5 2.3 16.5 7.5 24.5 11.5 8 4 19 9.9 24.5 13 5.5 3.2 14.7 9 20.5 12.8 5.8 3.9 16.9 11.8 24.7 17.6 9.9 7.4 14.1 11.1 13.7 12.1-0.3 0.8-7.3 13.2-15.6 27.5-8.3 14.3-17.9 30.8-21.4 36.7q-6.4 10.8-7.7 10.1c-0.6-0.3-7.3-5.4-14.7-11.3-7.4-5.8-17.1-13.1-21.5-16.2-4.4-3-12.7-8.4-18.5-11.8-5.8-3.5-17.7-9.8-26.5-14.1-8.8-4.2-21.9-9.8-29-12.4-7.1-2.6-16.4-5.8-20.5-7-4.1-1.3-14.5-4-23-5.9-8.5-1.9-20.4-4.3-26.5-5.3-9.2-1.5-16.9-1.8-47.5-1.8-25.1 0-39.2 0.4-45 1.3-4.7 0.7-13 2.2-18.5 3.3-5.5 1.1-16.8 3.7-25 5.9-8.3 2.1-19.3 5.5-24.5 7.4-5.2 1.9-13.8 5.2-19 7.4-5.2 2.2-14 6.1-19.5 8.7-5.5 2.5-14.1 6.9-19 9.7-4.9 2.8-13.9 8.5-20 12.6-6.1 4.2-15.3 10.9-20.5 15.1-5.2 4.2-14.2 11.8-19.9 17.1-5.8 5.2-15.8 15.4-22.4 22.5-6.6 7.1-15 17-18.7 22-3.8 4.9-10.7 15.1-15.5 22.5-4.7 7.4-12.7 21.6-17.7 31.5-5 9.9-11.3 23.9-14 31-2.7 7.1-6.9 19.7-9.3 28-2.4 8.2-5.5 20.9-6.9 28-1.3 7.1-3 17-3.7 22-0.8 5.6-1.3 22.4-1.3 45-0.1 35.3 0 36.3 2.7 52 1.6 8.8 4.6 22.7 6.7 31 2.1 8.2 5.6 20 7.8 26 2.1 6 6 16 8.7 22 2.6 6 7.2 15.8 10.1 21.7 3 6 8.3 15.6 11.8 21.5 3.5 6 9 14.4 12.1 18.8 3.2 4.4 9.2 12.3 13.4 17.5 4.1 5.2 11.2 13.5 15.6 18.4 4.4 4.9 13.2 13.7 19.5 19.5 6.4 5.8 15.4 13.7 20 17.4 4.7 3.8 14.8 11 22.5 16.2 7.7 5.1 20.5 12.8 28.5 16.9 8 4.1 19.9 9.8 26.5 12.7 6.6 2.8 16.7 6.8 22.5 8.9 5.8 2.1 16.8 5.4 24.5 7.3 7.7 2 18.3 4.6 23.5 5.7 5.2 1.2 16.2 2.8 24.5 3.7 8.5 0.9 23.5 1.6 34.5 1.6 10.7 0 25.8-0.5 33.5-1.2 7.7-0.6 19.6-2.1 26.5-3.2 6.9-1.2 18.6-3.6 26-5.4 7.4-1.9 18.9-5.2 25.5-7.5 6.6-2.3 17-6.2 23-8.7 6-2.4 17.7-8 26-12.2 8.2-4.3 19-10.3 24-13.3 5-3.1 12.7-8.2 17.2-11.5 4.4-3.2 12.5-9.5 18-13.9 5.4-4.5 18.6-17.1 29.3-28.1 12.7-13 22.6-24.1 28.5-32.1 5-6.7 12.1-17 15.8-22.9 3.7-6 10.5-18.2 15-27.3 4.6-9.1 10.6-22.5 13.5-29.8 2.9-7.2 7-19.4 9.2-27 2.2-7.5 5.4-20.5 7-28.7 1.6-8.3 3.4-17.3 4-20 0.9-4.1 1.7-5.4 4.5-7.3 1.9-1.2 10.4-6.1 18.7-10.8 8.4-4.8 22-12.5 30.3-17.2 8.2-4.6 19.8-11.3 25.7-14.8 6-3.5 11-6.3 11.2-6.2 0.2 0.2 0 9.3-0.5 20.3-0.5 11-1.6 26.3-2.4 34-0.9 7.7-2.7 20.4-4.1 28.2-1.3 7.9-4.4 22.1-6.8 31.5-2.4 9.5-5.9 21.8-7.6 27.3-1.8 5.5-5.7 16.3-8.7 24-3 7.7-9.9 23-15.3 34-5.5 11-14.1 26.6-19.2 34.7-5.1 8.1-14.3 21.6-20.3 29.9-6 8.4-10.9 15.5-10.7 15.8 0.1 0.3 31.9 32.3 70.6 71.1 38.6 38.8 71.9 72.5 73.8 75 2 2.5 4.7 7 5.9 10 1.8 4.4 2.3 7.5 2.3 15.6 0.1 9.6-0.1 10.3-3.6 17.7-2.5 5-5.6 9.5-9 12.8-2.9 2.8-8.4 6.6-12.3 8.5-6.6 3.2-7.6 3.4-17 3.4-6 0-12-0.6-15-1.6-2.7-0.8-7-3.1-9.5-5-2.5-1.9-36.9-35.6-148.5-146.3l-17 12.6c-9.4 6.9-23.1 16.1-30.5 20.6-7.4 4.4-21.4 11.9-31 16.6-9.6 4.8-23.4 11.1-30.5 14-7.1 3-17.3 7-22.5 8.8-5.2 1.9-15.8 5.2-23.5 7.3-7.7 2.1-19.2 5-25.5 6.4-6.3 1.4-16.9 3.5-23.5 4.6-6.6 1.2-20.1 2.5-30 3-9.9 0.5-26.1 0.9-36 1-9.9 0-25.6-0.5-35-1-9.9-0.5-24.5-2.2-35-4-9.9-1.6-25.6-5-35-7.4-9.4-2.5-22.4-6.2-29-8.4-6.6-2.2-19.2-6.8-28-10.3-8.8-3.5-22.7-9.8-31-14-8.2-4.1-21.3-11.4-29-16.1-7.7-4.8-18.9-12.1-25-16.3-6.1-4.3-15.7-11.4-21.4-15.9-5.8-4.4-18.1-15.5-27.5-24.6-9.3-9.1-21.5-21.7-27-28-5.6-6.3-13.5-16-17.7-21.5-4.2-5.5-11.2-15.4-15.6-22-4.4-6.6-10.9-17-14.3-23-3.5-6-10.1-18.6-14.6-28-4.5-9.4-10.1-21.7-12.4-27.5-2.3-5.8-6.3-17-9-25-2.6-8-6.6-21.9-8.9-31-2.2-9.1-5.2-23-6.5-31-1.4-8-3.2-21.1-4.1-29.2-1-9.6-1.5-24.8-1.5-43 0-15.6 0.5-33.7 1-40.3 0.6-6.6 2.2-19 3.6-27.5 1.4-8.5 3.6-20.5 5-26.5 1.3-6.1 4.5-18 7-26.5 2.6-8.5 7.6-23.1 11.2-32.5 3.5-9.4 9.2-22.9 12.6-30 3.5-7.1 9.5-18.9 13.5-26 4-7.1 11.9-20 17.6-28.5 5.7-8.5 15.2-21.6 21.1-29 6.3-7.9 19.8-22.5 32.3-35 11.9-11.9 26.5-25.5 32.6-30.3 6.1-4.8 15.9-12.3 22-16.7 6.1-4.3 15.7-10.8 21.5-14.4 5.8-3.6 17.9-10.4 27-15 9.1-4.6 22.6-11.2 30-14.6 7.4-3.4 21.4-8.8 31-12 9.6-3.2 24.7-7.7 33.5-9.9 8.8-2.2 20.9-4.9 27-6 6.1-1.1 16.6-2.7 23.5-3.6 6.9-0.8 17.7-2 24-2.5 6.3-0.5 23-0.7 37-0.4zm422.3-87.6c0.7 0 3.4 1.1 6.2 2.3 2.7 1.3 18 9.8 34 18.9 16 9.2 35.5 20.4 43.5 25.1 8 4.6 26.6 15.5 41.5 24.2 14.9 8.7 31.5 18.5 37 21.8 5.5 3.3 12.8 7.9 16.2 10.3 4.6 3.2 6.3 5 6.3 6.6 0 1.3-1.5 4.8-3.2 7.8-1.7 3-10.1 17.7-18.6 32.5-8.6 14.9-19.4 33.8-24.2 42-4.8 8.2-21.5 37.1-37 64-15.6 26.9-42.9 74.2-60.8 105-17.9 30.8-39.9 68.6-49 84-9.1 15.4-17.3 28.8-18.1 29.8-0.9 1.1-8.8 6-17.6 11-8.8 5-24.5 13.8-35 19.7-10.5 5.9-35.6 20-56 31.4-20.4 11.5-42.4 23.9-49 27.7-6.6 3.7-14 7.5-16.5 8.4-2.5 0.8-5.4 1.5-6.5 1.5q-2 0-3.2-3.2c-0.9-2.5-1.4-29.3-2.6-207.3l6.3-12c3.5-6.6 9.8-18.3 14-26 4.3-7.7 10.8-19.4 14.5-26 3.7-6.6 18.9-33.1 33.8-59 14.8-25.9 41.2-71.3 58.5-101 17.3-29.7 37.8-64.6 45.5-77.5 7.7-12.9 18.5-30.9 24.1-40 5.6-9.1 11.1-17.7 12.4-19.2 1.3-1.6 2.9-2.8 3.5-2.8zm6.5 80.5c-3.6 6.1-12.3 20.9-19.3 33-7 12.1-28.2 48.6-47 81-18.8 32.4-42.9 74.3-53.7 93-10.7 18.7-23.8 41.6-29.1 51-5.3 9.4-9.9 17.8-10.2 18.8-0.3 1.2 0 1.7 1.2 1.7 1 0 8.8 2 17.3 4.5 8.5 2.5 16.1 4.5 16.7 4.5 0.7 0 4.6-5.5 8.7-12.2 4-6.8 17.9-30.3 30.8-52.3 13-22 34.3-58.4 47.3-81 13.1-22.6 29.9-51.6 37.3-64.5 7.4-12.9 17.6-30.7 22.7-39.5 5-8.8 11.5-20.4 14.3-25.7 4.7-9 5.1-10 3.8-12-0.7-1.3-6.9-5.3-13.7-9-6.8-3.6-13.4-6.9-14.5-7.2-1.6-0.5-2.7 0-4.1 2.1-1.1 1.5-4.9 7.7-8.5 13.8zm74 41.5c-4.7 8-20.7 35.4-35.5 61-14.9 25.6-36.6 63.1-48.3 83.5-11.8 20.4-32.8 57-46.7 81.5-14 24.5-25.3 44.8-25.3 45.3 0 0.4 0.8 0.9 1.8 1.2 0.9 0.2 7.3 5.6 14.2 11.9 6.9 6.4 12.7 11.6 13 11.6 0.3-0.1 3.3-4.9 6.6-10.8 3.4-5.9 16.5-28.5 29.1-50.2 12.6-21.7 29.5-50.7 37.5-64.5 7.9-13.7 27.5-47.7 43.5-75.5 16-27.8 34.1-59.5 40.2-70.5 6.1-11 11.1-20.8 11.1-21.7 0-1.1-2.4-3.3-6.3-5.6-3.4-2.1-9.1-5.5-12.7-7.4-3.6-2-7.7-4.1-9.2-4.6-1.4-0.6-3-0.7-3.6-0.4-0.5 0.4-4.7 7.2-9.4 15.2zm-244.8 329.5c0.8 22.1 1.2 25.3 2.8 27.5 1.1 1.4 4.3 3.9 7.3 5.7 3 1.8 6.3 3.2 7.4 3.2 1.1 0.1 10.8-4.6 21.5-10.3 10.7-5.7 24.6-13.3 30.9-16.8 6.2-3.4 11.9-7.1 12.5-8.1 0.9-1.6-0.4-3.3-9.9-12.5-6-5.9-13.7-12.5-17-14.7-3.3-2.1-9.6-5.8-14-8.2-4.4-2.3-10.9-5.4-14.5-6.8-3.6-1.4-10.8-3.7-16-5.1-5.2-1.3-10.1-2.4-10.7-2.4-1 0-1.3 3-1.3 11.8 0.1 6.4 0.5 23 1 36.7zm-134-80.3c8.5 0.3 10.3 0.7 16.5 3.7 4.4 2.2 9.1 5.6 12.5 9 3.1 3.1 6.9 8.3 8.5 11.6 2.9 5.7 3 6.6 3 32.1l-3.5 5.9c-2.6 4.5-22.4 25-80 82.9-42.1 42.2-90.1 90-106.7 106.2-20.4 19.8-31.7 30-34.5 31.3-2.4 1.1-7.4 2.5-11.3 3.2-5.2 0.9-8.4 1-12.5 0.2-3-0.6-8.2-2.1-11.5-3.3-5.7-2.1-8.4-4.6-54.1-50.4-44.4-44.4-48.4-48.6-51.5-55.1-3.3-6.7-3.4-7.4-3.4-18.5 0-10.9 0.2-11.8 3.3-18.3 1.8-3.9 5.4-8.9 8.5-12 2.9-3 8.1-6.8 11.7-8.6 5.4-2.7 8.1-3.3 15.5-3.8 5.7-0.4 10.8-0.2 14 0.6 2.8 0.7 7.3 2.7 10 4.4 2.8 1.7 17.9 15.9 33.8 31.4 15.8 15.6 29 28.3 29.5 28.3 0.4 0 10.4-9.6 22.2-21.2 11.8-11.7 51.2-50.8 87.5-86.9 36.3-36.1 67.6-66.5 69.5-67.4 1.9-1 5.8-2.7 8.5-3.7 3.9-1.4 7.2-1.8 14.5-1.6z"/></svg>
