<svg version="1.2" viewBox="0 0 1092 1092" xmlns="http://www.w3.org/2000/svg"><path d="m935.5 3.1c9-0.1 20.8 0.5 27 1.4 6 0.8 13.7 2.1 17 3s9.4 2.8 13.5 4.2 12 4.7 17.5 7.3 15 8 21 12c8 5.3 14.4 10.6 23.5 19.9 8.8 8.8 14.8 15.9 19.9 23.6 4 6 9.4 15 11.8 20 4.1 8.2 4.6 9.8 5.5 27l-14.5 23c-8 12.7-17.2 27-20.4 32-3.2 4.9-7 9.6-8.5 10.5-2.6 1.4-3.1 1.3-11.5-2.9-4.8-2.4-14.4-7.6-21.3-11.6s-18.4-10.6-25.5-14.7c-7.1-4.2-20.6-11.9-30-17.3s-25.3-14.6-35.5-20.5-26.6-15.3-36.4-21.1c-9.9-5.7-19.5-11.9-21.5-13.7-3.2-2.9-3.5-3.7-2.8-6.5 0.4-1.8 5.7-12 11.9-22.7 6.1-10.7 14.6-25.3 18.9-32.5s9-14.1 10.4-15.5c1.7-1.5 4.9-3 8.4-3.7 3.1-0.6 12.8-1.2 21.6-1.2zm-2.2 48.7c-0.7 0.9-2.7 4.2-4.4 7.2-3 5.3-3.1 5.5-1.3 7.2 1.1 0.9 9.1 5.8 17.9 10.8 8.8 5.1 29.7 17.1 46.5 26.7 16.8 9.7 32.2 18.6 34.3 19.9 3.5 2.3 3.8 2.3 5.8 0.6 1.1-0.9 3.4-4.5 5.2-7.9l3.2-6.3c-4.7-8.7-8.7-14.6-12-18.8-3.4-4.2-9.2-10.4-13-13.6-3.9-3.3-9.9-7.8-13.5-10.1-3.6-2.4-8.7-5.4-11.5-6.8-2.7-1.3-8.8-3.8-13.5-5.5-4.7-1.6-12.1-3.7-16.5-4.5-4.4-0.9-10.9-1.8-14.5-2.1s-7.6-0.1-9 0.5c-1.3 0.5-3 1.7-3.7 2.7zm-500.8 127.7c16 0.2 33.3 0.9 38.5 1.5 5.2 0.5 15.4 1.9 22.5 3.1 7.1 1.1 18 3.1 24 4.4s19.5 4.8 30 7.8 25.3 7.8 33 10.7c7.7 2.8 21.6 8.9 31 13.5s22 11.1 28 14.5 17.2 10.4 24.8 15.6c7.5 5.2 18.7 13.2 24.7 17.9s11.2 8.9 11.5 9.5-4.6 9.9-10.9 20.7c-6.2 10.9-12.3 21.6-13.6 23.8s-6 10-10.4 17.4c-4.5 7.3-8.4 13.5-8.8 13.7-0.5 0.2-1.7-0.2-2.7-0.9-1.1-0.6-6.8-5-12.8-9.7-5.9-4.7-14.2-10.9-18.3-13.9s-13.1-8.9-20-13.1c-6.9-4.1-18.6-10.5-26-14.2s-18.2-8.5-24-10.8-13.9-5.3-18-6.6c-4.1-1.4-14-4.2-22-6.4s-20.8-5.1-28.5-6.5-20.5-3.1-28.5-3.6c-8.2-0.6-24.4-0.8-37.5-0.4-12.6 0.3-27 1.1-32 1.6-4.9 0.5-14.6 2.1-21.5 3.5s-17.7 3.9-24 5.6c-6.3 1.6-15.5 4.3-20.5 6-4.9 1.6-14.9 5.4-22 8.3s-16.4 6.8-20.5 8.7-12.2 6.1-18 9.3-15.7 9.3-22 13.6-16.4 11.7-22.5 16.5c-6 4.9-18.9 16.7-28.5 26.4-9.7 9.6-21.3 22.2-25.9 28-4.7 5.8-11.4 15-15.1 20.5s-9.6 14.9-13 21c-3.5 6.1-9.6 17.7-13.7 26-4 8.2-9.4 21.3-12.2 29-2.7 7.7-6.3 18.7-7.9 24.5-1.7 5.8-4.5 17-6.2 25-2.2 10-3.4 19.2-4 29.5-0.5 8.2-0.7 30.3-0.4 49 0.6 32.4 0.7 34.7 3.5 49 1.7 8.2 4.6 20.6 6.5 27.5s5.8 18.8 8.5 26.5c2.8 7.7 9.8 23.5 15.4 35 5.7 11.5 13.6 26 17.5 32 4 6 10 14.6 13.3 19s8.5 10.9 11.6 14.5 9 10.3 13.3 15c4.2 4.7 13.7 14 21 20.7s16.9 15 21.3 18.4 12.5 9.2 18 12.9 14.9 9.4 21 12.8 17.8 9.3 26 13.1c8.3 3.8 19.9 8.7 26 10.9 6.1 2.3 14.1 5 18 6.1s12.2 3.3 18.5 5c6.3 1.6 15.3 3.7 20 4.6 4.7 0.8 15.5 2.2 24 3s23.1 1.5 32.5 1.5 22.4-0.5 29-1c6.6-0.6 16.7-1.7 22.5-2.5 5.8-0.9 15-2.5 20.5-3.6 5.5-1.2 14.7-3.4 20.5-4.9 5.8-1.6 12.8-3.6 15.5-4.5 2.8-1 11.8-4.4 20-7.7 8.3-3.3 20.6-8.9 27.5-12.4 6.9-3.4 17.9-9.5 24.5-13.5 6.6-3.9 17-10.9 23-15.4s16.9-13.6 24-20.2 18.2-17.4 24.6-23.9c6.3-6.6 15.1-16.4 19.5-21.9s11.4-15.2 15.6-21.5 10.2-16.2 13.4-22 8-15.2 10.7-21 7.1-16.1 9.8-23 6.8-18.8 9-26.5 5.6-21.8 7.5-31.3c1.9-9.4 3.9-18.1 4.4-19.2s2.5-3.1 4.3-4.4c1.7-1.3 15.3-9.2 30.2-17.7 14.9-8.4 33.1-18.7 40.5-23s13.8-7.5 14.3-7.1c0.4 0.4 0.3 9.7-0.3 20.7s-1.7 26.3-2.6 34c-0.8 7.7-2.4 19.4-3.5 26s-3.4 17.6-5 24.5-4.6 17.9-6.5 24.5c-2 6.6-5.1 16.5-7 22s-5.8 15.4-8.6 22c-2.7 6.6-8.5 19-12.7 27.5-4.3 8.5-10.6 20.2-14.1 26-3.4 5.8-9.7 15.5-13.8 21.5-4.2 6-10.4 14.9-13.9 19.7-3.5 4.9-6.3 9.3-6.3 9.8s10.5 11.7 23.2 24.7c12.8 13.1 45.4 46.1 72.4 73.3 29.4 29.6 49.9 51.1 51.1 53.5 1.2 2.2 2.8 6.5 3.7 9.5s1.6 8 1.6 11-0.7 8.2-1.6 11.5c-0.8 3.3-2.7 8-4.2 10.5s-4.9 6.7-7.7 9.4c-2.7 2.7-7.6 6.4-10.7 8.2-5.8 3.4-5.9 3.4-18.5 3.4-9.6 0-13.8-0.4-16.8-1.6-2.2-0.9-5.8-3-8-4.7s-32.8-31.7-68-66.6c-35.2-35-67.6-67.1-80-79.3l-13.5 9.9c-7.4 5.5-18.5 13.2-24.5 17-6 3.9-17.1 10.3-24.5 14.3-7.4 4.1-19 10-25.7 13.2-6.8 3.2-17.8 8-24.5 10.7-6.8 2.7-17 6.5-22.8 8.6-5.8 2-17.2 5.4-25.5 7.5-8.2 2.2-20.6 5-27.5 6.4-6.9 1.3-15.4 2.9-19 3.5s-14.1 1.6-23.5 2.2c-10.9 0.7-29 0.9-50.5 0.5-18.4-0.4-37.3-1.1-42-1.7s-15.5-2.3-24-3.9c-8.5-1.5-19.3-3.8-24-5s-15.2-4.2-23.5-6.6c-8.2-2.5-24.2-8.2-35.5-12.7s-25.9-10.9-32.5-14.3c-6.6-3.3-19-10.3-27.5-15.4s-21.6-13.6-29-18.8c-7.4-5.3-18.9-14.1-25.5-19.6s-19.7-17.7-29-27.1c-9.3-9.3-22.2-23.5-28.6-31.5-6.3-8-14.7-19-18.6-24.5s-10.9-16.5-15.7-24.5-12.2-21.7-16.6-30.5c-4.3-8.8-10.3-22.1-13.3-29.5s-6.6-16.9-8-21-3.7-11.3-5.1-16-4.1-14.8-6-22.5-4.4-19-5.5-25-2.8-16.6-3.8-23.5c-1.5-10.5-1.8-19.3-1.7-55.5 0-35.4 0.3-45 1.8-54.5 0.9-6.3 3-18.3 4.7-26.5 1.6-8.3 4.3-19.9 5.9-26s5-17.2 7.5-24.8c2.5-7.5 6.7-19.2 9.4-26 2.6-6.7 8.6-19.8 13.3-29.2s11.1-21.5 14.3-27 8.2-13.7 11.1-18.3c3-4.5 9.7-13.9 15-21 5.3-7 11.9-15.4 14.6-18.7 2.8-3.3 10.2-11.6 16.6-18.4 6.5-6.9 16.9-17.2 23.2-23 6.3-5.7 16.7-14.6 23-19.6s15.3-11.9 20-15.2c4.7-3.4 13.4-9.2 19.5-12.9s19.6-11.1 30-16.5 25.3-12.4 33-15.7 18.7-7.5 24.5-9.5c5.8-1.9 17.3-5.4 25.5-7.6 8.3-2.3 21.8-5.5 30-7.1 8.3-1.6 18.6-3.4 23-4.1 4.4-0.6 14.5-1.8 22.5-2.5 9.5-0.8 24.5-1.1 43.5-0.9zm424.3-87.5c0.6 0 5.1 2 9.9 4.4 4.9 2.4 17.8 9.4 28.8 15.6s24.7 14.1 30.5 17.5 15.2 8.9 21 12.2c5.8 3.4 22.6 13.2 37.5 21.9 14.9 8.6 31 18.2 36 21.2 5 3.1 11.2 7.2 14 9.2 2.7 2 5.6 4.4 6.2 5.3 1.1 1.4 0.5 3.3-3.8 11.4-2.8 5.4-12.1 22-20.7 36.8-8.6 14.9-26.9 46.6-40.7 70.5-13.9 23.9-36.4 62.9-50 86.5-13.7 23.6-35.6 61.4-48.8 84s-28.3 48.2-33.5 57c-5.3 8.8-10.8 17.6-12.3 19.5-1.6 1.9-6.3 5.6-10.6 8.2-4.3 2.5-17 9.8-28.3 16.1s-41.9 23.5-68 38.2-52 29.2-57.5 32c-5.5 2.9-11.8 5.6-14 6-3.3 0.6-4.3 0.3-6-1.4-2-2.1-2-3.8-2.8-209.6l6.8-13c3.8-7.1 10.4-19.5 14.8-27.5s16.1-28.7 26-46 30.6-53.3 46-80 35.6-61.6 45-77.5c9.3-15.9 25.3-42.9 35.5-60s22.1-36.7 26.5-43.7c4.3-7 8.7-13.2 9.6-13.7 0.9-0.6 2.2-1.1 2.8-1.1zm-26.8 137.5c-18.8 32.4-38.2 65.8-42.9 74-4.8 8.2-20.6 35.7-35.2 61s-31 54.1-36.6 64-10.3 18.8-10.6 19.7c-0.5 1.4 0.2 2 2.6 2.8 1.8 0.5 8.9 2.5 15.8 4.5 6.9 1.9 13.4 3.5 14.5 3.5 1.2 0 3-1.5 4.4-3.8 1.4-2 8.3-13.4 15.4-25.2s29.6-50.1 49.9-85c20.4-34.9 37.9-65.1 39-67 1.2-1.9 12.3-21.3 24.7-43 12.5-21.7 25.1-44.4 28.1-50.3l5.5-10.8c-4.6-3.8-11-7.6-17-10.9s-11.8-6-12.8-6c-1.1 0-3.4 2.6-6.1 6.7-2.4 3.8-19.8 33.4-38.7 65.8zm111.1-22c-2.4 3.8-10 16.9-17 29s-22.5 38.9-34.4 59.5c-12 20.6-27.8 47.9-35.1 60.5s-24 41.7-37 64.5c-13.1 22.8-26.4 46.4-29.6 52.5s-5.9 11.3-5.9 11.7c0 0.5 2.1 2.3 4.8 4.1 2.6 1.8 8.5 7 13.2 11.5s9 8.1 9.5 8.2c0.5 0 14.1-22.6 30.2-50.2 16-27.7 40.7-70.3 54.9-94.8 14.1-24.5 35.2-61.1 46.9-81.5 11.6-20.4 24.7-43.4 29.1-51.3l7.9-14.3c-3.9-3.6-10-7.4-16-10.7s-11.9-6.3-13-6.6-2.5-0.2-3.1 0.2-3.1 3.8-5.4 7.7zm-247.2 360.5c0.8 2.5 2.4 4.4 5.9 6.7 2.6 1.7 5.9 3.7 7.3 4.3 2.2 1 3.6 0.6 11.5-3.3 5-2.5 17.6-9.2 28.2-14.9 10.5-5.7 21.2-11.8 23.7-13.6l4.6-3.2c-5-6.5-10.5-11.9-15.5-16.3-5-4.3-13-10.3-18-13.4s-13-7.3-18-9.5c-5-2.1-13.7-5.2-19.5-6.9-5.8-1.6-10.9-2.9-11.4-2.9s-0.6 15.1-0.3 34.7c0.3 19.2 1 36.4 1.5 38.3zm-135.3-104.6c8.7 0.2 10.8 0.7 15.9 3.2 3.2 1.6 8.6 5.4 12 8.5s7.1 7.6 8.3 10c1.3 2.4 3 7.8 3.9 11.9 1.1 5.1 1.4 9.4 0.9 13.5-0.4 3.3-1.5 8.2-2.6 11-1 2.7-4.4 7.9-7.5 11.5s-22.5 23.5-43.3 44.4c-20.7 20.8-66.4 66.4-101.7 101.5-44.6 44.3-65.5 64.4-69 66.3-2.8 1.5-8.2 3.2-12.4 3.9-5.8 0.9-9 0.9-14 0-3.6-0.6-8.9-2.3-11.7-3.6-3.9-1.8-11.2-8.1-27.5-23.9-12.3-11.7-33.1-32.3-46.3-45.7s-25.6-26.9-27.6-29.9-4.3-7.8-5.2-10.5c-0.8-2.8-1.8-7.5-2.2-10.5-0.5-3.5-0.3-7.5 0.5-11 0.7-3 2.4-8 3.9-11 1.4-3.2 5-8 8.6-11.5 3.3-3.3 8.7-7.4 12-9 5.7-2.9 6.6-3 18.5-3 12 0 12.7 0.2 17.9 3 3.6 2 15.5 12.8 66.3 62l66.1-66c36.4-36.4 76.1-75.8 88.2-87.7 14.2-14 23.6-22.4 26.6-23.9 2.5-1.3 6.1-2.6 8-3.1 1.9-0.4 7.9-0.6 13.4-0.4z" fill-rule="evenodd"/></svg>