<svg version="1.2" xmlns="http://www.w3.org/2000/svg" viewBox="0 0 1092 1092" width="1092" height="1092"><style></style><path fill-rule="evenodd" d="m930.9 3.5c7.5 0.2 16.6 0.8 20.2 1.4 3.5 0.6 10.4 2 15.2 3.1 4.9 1.2 14 4.2 20.2 6.7 6.3 2.5 15.6 7.1 20.7 10.1 5.2 3 13.8 9 19.3 13.3 5.4 4.4 13.6 12.1 18.3 17.2 4.6 5.1 11.3 13.5 14.7 18.6 3.4 5.2 8.6 14 11.6 19.7 5.3 10.3 5.3 10.4 4.6 26.2l-7 10.8c-3.8 6-10 15.8-13.8 22-3.7 6.1-9.1 15-11.9 19.7-2.9 4.7-6.3 9.5-7.7 10.8-1.3 1.2-3.1 2.2-3.9 2.2-0.8 0-4.5-1.6-8.1-3.6-3.7-1.9-18.2-10.2-32.3-18.4-14.1-8.1-35.6-20.5-47.8-27.6-12.2-7-25.1-14.4-28.6-16.5-3.5-2-11.7-6.8-18.2-10.5-6.5-3.8-18.7-10.8-27-15.7-8.4-4.8-15.9-9.8-16.8-11.1-1.3-2-1.4-2.8-0.3-5.4 0.7-1.7 4.9-9.3 9.3-16.9 4.4-7.6 11.4-19.8 15.7-27.1 4.2-7.3 9.2-15.8 11.1-18.9 2-3.2 4.8-6.5 6.2-7.4 1.8-1.1 6.1-1.9 12.6-2.4 5.4-0.4 16.1-0.5 23.7-0.3zm-12 47.9c-1.7 2.3-4 6.2-5.2 8.5-1.1 2.3-2.1 4.4-2.1 4.7 0 0.2 3.3 2.3 7.2 4.6 3.9 2.3 11.6 6.6 17 9.7 5.4 3.1 14.1 8 19.2 11 5.2 3 16.9 9.7 26.1 15 9.2 5.3 21 12.1 26.1 15.1l9.4 5.4c2.8-3.6 4.9-7.3 6.5-10.6 1.6-3.2 2.9-6.3 2.9-6.9 0-0.5-0.9-2.6-2-4.7-1.1-2-4-6.4-6.4-9.8-2.5-3.4-7.5-9.2-11.1-12.9-3.7-3.7-9.3-8.7-12.6-11-3.2-2.3-9.6-6.2-14.3-8.7-4.6-2.5-10.8-5.4-13.8-6.5-2.9-1.1-8.7-2.9-12.8-4.1-4.6-1.3-11.7-2.2-19.2-2.6l-11.9-0.6zm-71.9 41.6c1.7 0.2 12.1 5.7 23.3 12.1 11.1 6.4 22.2 12.7 24.6 14.1 2.4 1.3 16.2 9.3 30.5 17.7 14.4 8.3 34.6 20.1 44.9 26 10.3 6 25.4 14.9 33.5 19.8 8.1 4.8 16.5 10 18.5 11.4 2.3 1.6 3.7 3.4 3.7 4.6-0.1 1-2.4 5.9-5.2 10.8-2.8 4.9-16.6 28.8-30.6 53.2-14.1 24.4-29 50.1-33 57.2-4.1 7-10.5 18.1-14.3 24.6-3.8 6.5-15.8 27.4-26.8 46.3-10.9 19-29.6 51.2-41.4 71.5-11.8 20.3-29 49.8-38.2 65.5-9.3 15.8-17.7 29.6-18.9 30.7-1.1 1.2-9.1 6.1-17.8 11-8.7 4.8-18.4 10.2-21.7 12.1-3.2 1.8-17 9.5-30.5 17.2-13.6 7.7-27.1 15.3-30.1 16.9-3 1.7-14.7 8.2-26.1 14.6-11.4 6.4-25.2 14.2-30.6 17.4-5.4 3.1-11.8 6.4-14.3 7.3-2.4 0.8-5.3 1.5-6.4 1.5-1.8 0-2-0.9-2.7-14.1-0.4-7.7-0.7-53.9-0.7-191.4l8.7-16.8c4.8-9.2 11.6-21.8 15.1-28.1 3.6-6.2 13.1-23.1 21.3-37.4 8.1-14.4 17.9-31.5 21.7-38 3.7-6.5 11.7-20.2 17.6-30.5 6-10.3 14.3-24.7 18.5-32.1 4.3-7.3 11.4-19.5 15.8-27.1 4.5-7.5 13.6-23.1 20.2-34.5 6.7-11.3 17.9-30.4 25-42.3 7-12 18.3-31 25.1-42.4 6.8-11.4 13.6-22.6 15.3-25 2.6-3.8 3.3-4.2 6-3.8zm3.3 76.6c-4.5 7.9-17.2 29.6-28 48.3-10.9 18.7-26.9 46.2-35.5 61.1-8.7 14.9-20.1 34.6-25.4 43.8-5.4 9.3-13.9 24.1-19.1 33.1-5.1 8.9-18.6 32.4-29.9 52.2l-20.5 36c11.8 2.7 20.1 5.1 26.1 7 10.4 3.4 10.9 3.5 12.1 1.7 0.7-1 6.3-10.3 12.5-20.6 6.1-10.3 18.8-32 28.3-48.3 9.5-16.2 25.4-43.5 35.3-60.6 9.9-17 20.5-35.2 23.5-40.4 2.9-5.1 10.1-17.5 15.9-27.6 5.8-10 18.1-31.3 27.3-47.3 9.2-16 17.5-30.5 18.4-32.2q1.6-3.3 0.8-5c-0.5-0.9-3.3-3-6.2-4.6-2.9-1.5-8.8-4.9-13.2-7.4-4.3-2.5-8.6-4.9-9.5-5.2-1-0.4-2.4-0.1-3.1 0.5-0.8 0.7-5.2 7.6-9.8 15.5zm56.9 68.5c-12.8 22.2-26.3 45.5-30 51.7-3.7 6.3-11.9 20.5-18.3 31.6-6.4 11.1-14 24.4-17 29.5-3 5.2-11.4 19.8-18.8 32.6-7.3 12.7-22.5 39.3-33.8 59.1l-20.5 36c4.9 2 11.5 7.7 17.8 14.1l11.4 11.5c10.8-18.3 21.1-36.1 29.9-51.3 8.8-15.1 19-32.7 22.6-38.9 3.7-6.2 19.1-32.8 34.3-59.1 15.2-26.3 36.2-62.9 46.8-81.3 10.5-18.5 22.6-39.8 26.8-47.3 4.2-7.6 7.2-14.1 6.8-14.4-0.5-0.4-7.1-4.3-14.9-8.7-7.7-4.4-14.8-8-15.9-8-1 0-2.3 0.6-2.8 1.2-0.5 0.7-11.5 19.5-24.4 41.7zm-225.9 284.1c0.4 18.8 1.1 36 1.7 38.2 0.5 2.1 1.7 4.4 2.7 4.9 0.9 0.5 4.3 2.4 7.6 4.1l6 3.2c6.8-2.8 11.3-5.1 14.3-6.8 2.9-1.8 15.6-8.7 28-15.5 12.5-6.8 23-12.6 23.4-13 0.4-0.3-0.9-2.6-2.9-5-2-2.5-6.8-7.3-10.6-10.9-3.8-3.5-10.7-8.9-15.3-11.9-4.6-3.1-11.2-7.1-14.8-9-3.5-1.9-10.1-4.8-14.7-6.5-4.7-1.7-11.3-3.8-14.8-4.6-3.6-0.8-7.5-1.5-8.8-1.5h-2.4z"/><path fill-rule="evenodd" d="m451.4 185.4c14-0.1 29.4 0.5 38.9 1.4 8.7 0.8 21.8 2.3 29.1 3.4 7.3 1 20.6 3.5 29.6 5.4 8.9 2 23.1 5.6 31.5 8.1 8.4 2.4 20.8 6.5 27.6 8.9 6.8 2.5 17.4 6.7 23.6 9.4 6.3 2.7 18 8.3 26.2 12.3 8.1 4.1 20.6 10.9 27.8 15.2 7.2 4.2 13.1 8.2 13.1 8.7 0 0.6-3.2 6.4-7 13.1-3.9 6.6-10.6 18.3-15 25.8-4.3 7.6-10.3 18.1-13.4 23.2-3 5.2-5.7 9.7-6 10.2-0.3 0.4-6.3-2.6-13.3-6.8-7.1-4.2-17.3-10-22.7-12.8-5.4-2.9-15.8-7.8-23.2-10.9-7.3-3.1-21-8.2-30.5-11.3-9.5-3.1-24.4-7.2-33-9.2-8.7-1.9-22-4.4-29.6-5.5-7.6-1-21.3-2.4-30.6-3-9.8-0.7-23.2-0.9-32.5-0.5-8.6 0.3-22 1.3-29.5 2.1-7.6 0.8-18.5 2.4-24.2 3.5-5.7 1.1-15.7 3.2-22.2 4.8-6.5 1.5-18.9 5.1-27.6 7.9-8.6 2.8-21.5 7.6-28.5 10.6-7.1 2.9-15.5 6.7-18.8 8.3-3.2 1.6-11.2 5.9-17.7 9.5-6.5 3.6-17.8 10.5-25.1 15.4-7.4 4.9-19.1 13.5-26.2 19.2-7 5.6-20.1 17.6-29 26.6-9 9-21.1 22.3-27 29.6-5.9 7.3-14.4 18.9-18.9 25.6-4.5 6.8-10.9 17.2-14.3 23.2-3.4 6-8.8 16.2-11.9 22.7-3.1 6.5-7.5 16.5-9.7 22.1-2.3 5.7-5.7 15.1-7.6 20.7-1.9 5.7-4.7 15.1-6.2 20.7-1.5 5.7-3.8 14.8-4.9 20.2-1.2 5.5-3 15.9-4 23.2-1.1 7.3-2.5 21.1-3.1 30.6-1 13.5-1 21.7 0 38.4 0.6 11.7 2 27.2 3.1 34.5 1 7.3 2.8 17.5 3.8 22.7 1.1 5.1 2.9 13.1 4.1 17.7 1.1 4.6 3.4 12.8 5.1 18.2 1.6 5.5 5.7 16.8 8.9 25.2 3.3 8.4 9.8 22.8 14.5 32 4.7 9.2 11.3 21.2 14.7 26.6 3.4 5.4 9 13.9 12.5 18.7 3.5 4.9 10 13.6 14.5 19.2 4.4 5.7 15.9 18.2 25.4 27.6 9.5 9.5 22.6 21.6 29.1 26.8 6.5 5.2 16.9 13 23.1 17.3 6.3 4.4 16.9 11.1 23.7 15.1 6.7 3.9 15.6 8.8 19.7 10.8 4 2.1 13.6 6.4 21.2 9.6 7.6 3.3 20 7.9 27.6 10.4 7.6 2.5 18 5.6 23.1 7 5.2 1.4 14.7 3.6 21.2 4.9 6.5 1.4 17.4 3.2 24.2 4.1 6.7 0.9 19.8 2 29 2.5 9.3 0.5 23.4 0.7 31.6 0.4 8.1-0.3 22.1-1.5 31-2.5 9-1 20.7-2.8 26.1-3.9 5.5-1.1 15.1-3.3 21.5-4.9 6.3-1.6 16.5-4.5 22.6-6.5 6.1-2 16.6-5.7 23.2-8.4 6.6-2.6 16.4-6.8 21.7-9.3 5.3-2.5 15.1-7.6 21.9-11.5 6.8-3.8 18.3-11 25.6-16 7.4-4.9 19.1-13.6 26.2-19.2 7-5.7 19.6-17.2 28-25.6 8.4-8.5 20.1-21.4 26-28.7 5.9-7.3 14.1-18.4 18.3-24.6 4.2-6.2 10.3-15.8 13.4-21.2 3.2-5.4 9.5-17.4 13.9-26.6 4.5-9.2 10.3-22.7 13.1-30 2.7-7.4 6.7-19.6 8.9-27.2 2.3-7.5 5.4-20.2 6.9-28 1.6-7.9 3.6-19.4 4.4-25.7 0.8-6.2 2-18.6 2.6-27.6 0.7-11.3 0.8-22.1 0.1-35.9-0.6-10.9-0.9-19.8-0.8-19.9 0.1 0 4.4-2.5 9.5-5.4 6.1-3.4 11.7-7.5 15.9-11.7 3.7-3.7 8.3-9.7 10.9-14.3 2.5-4.3 10.8-18.5 18.5-31.5 7.7-13 14.2-23.9 14.4-24.2 0.2-0.2 2.1 7.1 4.3 16.3 2.2 9.2 5.1 23.6 6.5 32 1.3 8.4 3.2 22.2 4.1 30.6 1.2 10.7 1.7 24 1.7 44.3 0.1 21.8-0.3 32.9-1.6 44.4-1 8.4-2.9 21.9-4.3 30-1.3 8.2-4.4 22.8-6.8 32.6-2.4 9.7-6 22.8-7.9 29-2 6.3-6.8 19.4-10.6 29.1-3.9 9.8-11.7 27.1-17.4 38.4-5.8 11.4-14.5 27.1-19.3 34.8-4.9 7.8-12.8 19.6-17.7 26.3-4.9 6.7-13.8 18.1-19.7 25.3-6 7.2-18 20.2-26.6 29-8.7 8.8-22 21.1-29.6 27.5-7.6 6.3-19.2 15.4-25.9 20.1-6.6 4.7-18.6 12.6-26.6 17.7-8 5-22.3 13-31.8 17.9-9.5 4.8-23.4 11.4-31 14.6-7.6 3.3-21.1 8.4-30.1 11.4-8.9 3-22.2 7-29.5 9-7.4 1.9-19.8 4.7-27.6 6.3-7.9 1.6-19.4 3.6-25.7 4.5-6.2 0.9-18.4 2.2-27.1 3-8.6 0.8-25.1 1.5-36.4 1.5-11.4 0-27.8-0.7-36.5-1.5-8.7-0.8-20.6-2.2-26.6-3-6-0.8-15.5-2.4-21.2-3.5-5.7-1.1-17.4-3.8-26.1-6-8.7-2.1-23.8-6.5-33.5-9.8-9.8-3.2-25.1-9-34-12.8-9-3.8-22.7-10.3-30.6-14.4-7.8-4.1-21.1-11.7-29.5-17-8.4-5.2-21.1-13.7-28.1-18.8-7.1-5.1-18.6-14.1-25.7-20.1-7-5.9-20.4-18.3-29.6-27.6-9.3-9.2-21.1-21.9-26.2-28.1-5.2-6.3-12.5-15.6-16.3-20.7-3.8-5.2-10.7-15.1-15.3-22.2-4.6-7-11.7-18.6-15.6-25.6-4-7.1-9.9-18.6-13.3-25.6-3.4-7.1-8.3-18.4-11.1-25.2-2.7-6.7-6.8-17.6-9-24.1-2.3-6.5-5.9-18.1-8-25.6-2.2-7.6-5.2-20-6.8-27.6-1.6-7.6-3.8-19.8-4.9-27.1-1.1-7.4-2.7-21.5-3.6-31.6-1.3-14-1.5-24.3-1.1-44.3 0.3-14.4 1.3-32.4 2.2-39.9 0.8-7.6 2.7-20.3 4-28.1 1.3-7.9 4.2-21.4 6.3-30.1 2.1-8.7 5.9-22.2 8.4-30.1 2.5-7.8 7.5-21.6 11-30.5 3.5-8.9 9.7-22.9 13.7-31 4-8.2 10.4-20.4 14.3-27.2 3.9-6.7 11.1-18.3 16-25.6 4.9-7.3 12.1-17.5 16-22.6 4-5.2 10.9-13.8 15.4-19.3 4.5-5.4 16.2-17.8 25.9-27.6 9.8-9.9 23.4-22.5 30.2-28.1 6.8-5.7 17.7-14.1 24.1-18.7 6.5-4.6 18-12.2 25.6-17 7.6-4.7 20.4-12.1 28.6-16.4 8.1-4.4 21.6-10.8 30-14.4 8.4-3.6 20.2-8.4 26.1-10.5 6-2.1 18-6 26.6-8.7 8.7-2.6 23.1-6.3 32.1-8.2 8.9-2 22.4-4.5 30-5.6 7.6-1.1 20-2.6 27.6-3.3 7.6-0.8 24.2-1.4 37-1.5zm6.4 227.1c12 0.3 19.6 1 26.6 2.5 5.4 1.1 14.5 3.5 20.2 5.4 5.7 1.8 14.8 5.6 20.2 8.4 5.4 2.8 13.2 7.3 17.3 10.1 4 2.8 12.2 9.9 18.2 16 7.1 7.1 12.6 13.8 16 19.2 2.8 4.6 6.7 11.9 8.6 16.2 1.9 4.4 4.6 12.3 5.9 17.8 1.4 5.4 3 15.1 3.7 21.6 0.8 9.1 0.8 14.4-0.1 22.7-0.7 6-2.3 15.1-3.7 20.2-1.3 5.2-4.6 13.8-7.3 19.2-2.6 5.4-7.7 13.7-11.1 18.3-3.5 4.6-9.4 11.2-13.1 14.7-3.7 3.5-10.1 8.8-14.2 11.8-4.1 3-15.8 10.6-26.1 16.8-12.8 7.8-20.4 13.1-24.1 16.9-3 3.1-7.8 8.1-10.6 11.1-3.1 3.3-7.6 6.7-11.1 8.5-3.3 1.6-9.2 3.5-13.1 4.1-5.6 1-8.6 1-13.8 0-3.6-0.6-9-2.3-11.8-3.8-2.9-1.4-7.5-4.8-10.4-7.6-3-2.9-6.5-7.6-8.2-10.9-1.6-3.3-3.4-8.4-4-11.4-0.6-3-0.8-8.1-0.5-11.3 0.3-3.3 1.3-8.1 2.3-10.9 1-2.7 3.9-7.8 6.4-11.3 2.5-3.5 7.4-9.5 10.8-13.2 3.5-3.8 9.6-9.5 13.7-12.7 4.1-3.2 16.9-11.7 28.6-18.9 11.6-7.3 23.3-15.1 26-17.4 2.6-2.4 5.9-6.3 7.4-8.7 2.4-4.2 2.5-5.3 2.5-16.3 0-10.9-0.2-12.2-2.6-16.8-1.4-2.7-4.5-6.7-6.9-9-2.3-2.2-6.5-5.4-9.2-7-2.7-1.6-8-4-11.8-5.4-3.8-1.4-10.5-3-14.8-3.7-4.7-0.7-11.2-1-16.3-0.6-4.6 0.4-11.4 1.3-15.2 2.1-3.8 0.8-10.5 3.2-14.8 5.3-6.1 3-9.5 5.5-14.6 10.9-3.6 3.8-8 9.7-9.7 13.1-1.7 3.4-5.6 8.7-8.6 11.9-3.3 3.4-7.9 6.9-11.5 8.7-3.2 1.5-9 3.3-12.8 3.9-4.9 0.8-8.6 0.8-12.8 0-3.2-0.6-8.7-2.4-12.1-4-3.6-1.8-8.2-5.1-11.1-8.2-2.8-2.8-6.3-7.8-7.9-11.1-1.6-3.2-3.4-8.5-4-11.8-0.8-4.4-0.8-7.7 0.1-12.8 0.7-3.8 2.5-9.8 4.1-13.3 1.6-3.5 5.9-10.8 9.5-16.3 4.2-6.3 10.4-13.7 17.4-20.7 6-6 14.5-13.4 18.8-16.4 4.3-3 11.6-7.4 16.3-9.7 4.6-2.3 12.3-5.6 17.2-7.4 4.9-1.8 13.3-4.2 18.7-5.3 5.4-1.1 13.7-2.5 18.3-3 4.6-0.5 15.9-0.7 25.1-0.5zm-5.4 339.6c3-0.1 8.1 0.3 11.3 0.9 3.3 0.6 9.7 2.9 14.3 5.1 6.4 3.1 10 5.7 15.4 11 5.1 5.2 7.9 9 10.5 14.4 1.9 4.1 4 9.7 4.6 12.6 0.5 2.8 1 8.8 1 13.3 0 4.5-0.6 10.6-1.4 13.5-0.8 3-2.9 8.3-4.6 11.9-2.2 4.4-5.5 8.7-10.6 13.8-5.2 5.1-9.6 8.4-14.2 10.6-3.6 1.7-9.4 3.8-12.8 4.6-3.4 0.8-9 1.5-12.5 1.5-3.6 0-10-0.9-14.3-2-4.4-1.1-10.4-3.4-13.3-5.1-3-1.7-8.6-6.2-12.4-10.1-3.9-3.9-8.3-9.5-10-12.8-1.7-3.3-3.8-8.6-4.6-11.9-0.9-3.2-1.6-9.9-1.6-14.7 0-5 0.7-11.5 1.5-14.8 0.9-3.3 3-8.6 4.7-11.9 1.7-3.2 6.2-9 10-12.9 5.3-5.4 8.9-7.9 15.3-11 4.6-2.2 10.6-4.5 13.3-5 2.7-0.5 7.4-0.9 10.4-1z"/></svg>